<?xml version="1.0" standalone="no"?>
<!DOCTYPE svg PUBLIC "-//W3C//DTD SVG 20010904//EN"
 "http://www.w3.org/TR/2001/REC-SVG-20010904/DTD/svg10.dtd">
<svg version="1.0" xmlns="http://www.w3.org/2000/svg"
 width="405.000000pt" height="405.000000pt" viewBox="0 0 405.000000 405.000000"
 preserveAspectRatio="xMidYMid meet">
<metadata>
Created by potrace 1.11, written by Peter Selinger 2001-2013
</metadata>
<g transform="translate(0.000000,405.000000) scale(0.100000,-0.100000)"
fill="#000000" stroke="none">
<path d="M180 2075 l0 -1976 24 -22 c13 -12 27 -33 31 -47 6 -21 4 -20 -14 7
-27 43 -41 42 -41 -2 l0 -35 108 0 c70 0 102 4 92 10 -8 5 -11 12 -7 16 4 4
15 0 25 -9 20 -18 108 -24 97 -7 -6 9 1 12 23 9 4 -1 6 -4 5 -8 -1 -4 41 -8
93 -8 57 -1 94 2 94 8 0 31 -46 82 -65 72 -5 -3 -4 0 3 8 19 20 44 0 62 -49
14 -40 16 -42 55 -42 29 0 36 3 25 10 -13 8 -13 10 2 10 9 0 20 -4 23 -10 4
-6 431 -10 1196 -10 792 0 1188 3 1184 10 -3 5 -1 10 4 10 6 0 11 -4 11 -10 0
-6 119 -10 330 -10 l330 1 0 2024 0 2025 -1845 0 -1845 0 0 -1975z m1802 931
c-2 -9 2 -16 8 -16 6 0 8 -6 4 -12 -6 -10 -4 -10 7 0 7 6 17 12 22 12 4 0 5
-6 1 -12 -6 -10 -4 -10 7 0 15 14 33 16 25 3 -8 -12 25 -27 63 -30 23 -1 111
-78 111 -97 0 -8 5 -14 11 -14 5 0 7 -4 4 -10 -3 -5 -1 -10 5 -10 6 0 9 -4 6
-9 -3 -5 1 -14 9 -21 8 -7 15 -21 15 -32 0 -10 7 -21 15 -24 8 -4 15 -12 15
-20 0 -19 32 -84 42 -84 4 0 8 -11 8 -23 0 -13 7 -37 15 -53 13 -26 48 -196
48 -234 0 -8 4 -20 9 -27 5 -7 7 -21 4 -31 -13 -40 -16 -95 -6 -107 10 -12 12
-46 7 -110 -2 -28 -36 -75 -55 -75 -13 0 -40 -95 -35 -124 3 -14 11 -31 19
-37 22 -18 16 -36 -15 -47 -31 -11 -55 -43 -43 -58 4 -5 -1 -3 -10 4 -15 12
-16 10 -14 -16 1 -17 8 -37 15 -46 8 -9 11 -19 8 -23 -4 -3 -2 -15 4 -26 8
-14 8 -18 0 -13 -6 4 -11 3 -11 -3 0 -5 5 -13 10 -16 13 -8 3 -25 -13 -25 -8
0 -8 3 1 9 11 6 10 10 -4 15 -10 4 -15 4 -12 0 4 -4 3 -15 -2 -24 -8 -15 -6
-17 13 -13 22 5 22 5 2 -10 -11 -8 -17 -19 -12 -23 4 -4 7 -2 7 4 0 7 6 12 13
12 6 -1 1 -10 -13 -21 -14 -12 -25 -26 -26 -33 -1 -18 -17 -50 -30 -63 -8 -8
-13 -52 -13 -127 -1 -63 -5 -137 -10 -163 -10 -48 -27 -103 -34 -103 -2 0 -3
25 -3 56 0 36 -4 58 -13 63 -7 5 -11 13 -7 19 3 6 -7 10 -28 9 -27 -1 -33 -5
-31 -19 2 -10 0 -16 -6 -13 -5 4 -7 11 -4 16 4 5 1 9 -5 9 -6 0 -8 5 -5 10 10
17 -24 62 -41 56 -9 -3 -12 -1 -9 4 3 6 1 10 -5 10 -8 0 -10 -9 -5 -27 11 -45
25 -136 24 -158 -1 -11 -5 0 -10 24 -5 25 -15 52 -24 60 -14 14 -15 12 -11
-18 2 -21 -1 -34 -10 -38 -8 -3 -12 -9 -9 -13 3 -5 1 -11 -5 -15 -6 -4 -4 -19
5 -42 8 -20 13 -38 11 -40 -7 -7 -75 120 -95 178 -44 125 -109 261 -121 254
-10 -6 -35 23 -27 32 4 3 -3 16 -16 28 -12 11 -28 32 -36 46 -18 30 -32 91
-20 83 5 -3 8 20 8 51 -2 52 -26 117 -71 190 -7 11 -27 44 -45 72 -18 29 -33
59 -33 66 0 7 -4 17 -8 22 -15 19 -42 110 -46 160 -3 28 -5 52 -6 55 -6 16 -4
56 2 60 4 3 8 30 9 60 1 48 15 106 36 160 8 21 11 31 18 64 6 29 30 77 65 131
11 17 25 41 31 55 5 14 19 34 29 45 11 12 26 39 33 60 9 26 24 45 43 55 16 8
39 25 51 37 26 27 97 69 87 51 -4 -7 3 -4 16 7 14 12 20 14 15 5 -4 -8 3 -4
16 10 15 16 21 28 14 33 -5 4 4 6 20 4 21 -3 29 -9 27 -21z m315 -1542 c-3 -3
-12 -4 -19 -1 -8 3 -5 6 6 6 11 1 17 -2 13 -5z m-520 -106 c-3 -8 -6 -5 -6 6
-1 11 2 17 5 13 3 -3 4 -12 1 -19z m343 -429 c0 -28 -15 -23 -16 6 -1 14 2 22
7 19 5 -3 9 -14 9 -25z m-61 -62 c1 -46 2 -47 31 -45 18 1 30 8 30 16 0 12 3
12 17 1 14 -12 14 -10 -2 14 -12 19 -15 31 -8 35 6 4 64 7 127 7 92 0 119 -3
126 -15 8 -12 12 -12 28 4 20 17 20 16 27 -14 9 -39 5 -42 -70 -68 -163 -56
-379 -68 -510 -28 -5 2 -22 6 -38 11 -15 4 -33 17 -39 29 -10 19 -10 20 5 7
13 -10 17 -10 17 -1 0 6 -9 14 -20 17 -36 9 -21 25 19 21 22 -2 37 0 35 4 -3
5 3 8 13 9 46 3 177 21 186 26 4 2 7 16 8 31 1 48 17 -6 18 -61z m45 -2 c-4
-8 -11 -15 -16 -15 -6 0 -5 6 2 15 7 8 14 15 16 15 2 0 1 -7 -2 -15z m466
-455 c0 -5 -4 -10 -10 -10 -5 0 -10 5 -10 10 0 6 5 10 10 10 6 0 10 -4 10 -10z
m-270 -74 c0 -6 -167 -43 -225 -50 -40 -5 -45 -4 -25 5 13 5 28 15 33 22 6 9
10 9 13 1 3 -8 27 -6 82 6 76 18 122 24 122 16z m1511 -52 c-9 -28 -9 -29 -10
-3 -1 14 2 29 6 32 11 12 13 2 4 -29z m9 -112 c0 -71 -2 -80 -25 -100 -28 -24
-34 -18 -9 9 12 13 17 40 18 93 1 100 16 98 16 -2z m-88 16 c4 -32 0 -64 -8
-82 -12 -29 -13 -26 -14 52 0 91 15 111 22 30z m103 -120 c-5 -4 -10 -6 -10
-5 0 1 2 42 5 92 l5 90 5 -85 c3 -50 1 -88 -5 -92z m-345 102 c0 -5 -4 -10
-10 -10 -5 0 -10 5 -10 10 0 6 5 10 10 10 6 0 10 -4 10 -10z m-80 -20 c0 -5
-4 -10 -10 -10 -5 0 -10 5 -10 10 0 6 5 10 10 10 6 0 10 -4 10 -10z m360 -6
c0 -8 -4 -12 -10 -9 -5 3 -10 10 -10 16 0 5 5 9 10 9 6 0 10 -7 10 -16z
m-3480 -67 c36 -53 53 -86 29 -54 -8 9 -25 19 -38 22 -27 5 -41 21 -40 45 0 9
4 6 9 -6 11 -27 30 -40 30 -21 0 8 -11 26 -25 41 -28 30 -31 38 -12 30 6 -2
28 -28 47 -57z m3065 43 c3 -5 -1 -10 -9 -10 -9 0 -16 5 -16 10 0 6 4 10 9 10
6 0 13 -4 16 -10z m275 0 c0 -5 -4 -10 -10 -10 -5 0 -10 5 -10 10 0 6 5 10 10
10 6 0 10 -4 10 -10z m-3300 -28 c0 -15 -2 -15 -10 -2 -13 20 -13 33 0 25 6
-3 10 -14 10 -23z m3236 1 c-10 -10 -19 5 -10 18 6 11 8 11 12 0 2 -7 1 -15
-2 -18z m-3184 -10 c8 -10 18 -27 22 -38 4 -14 0 -12 -15 8 -11 15 -27 27 -35
27 -8 0 -14 5 -14 10 0 16 26 12 42 -7z m2933 7 c3 -5 -1 -10 -10 -10 -9 0
-13 5 -10 10 3 6 8 10 10 10 2 0 7 -4 10 -10z m-2850 -10 c3 -5 1 -10 -4 -10
-6 0 -11 5 -11 10 0 6 2 10 4 10 3 0 8 -4 11 -10z m3070 0 c3 -5 1 -10 -4 -10
-6 0 -11 5 -11 10 0 6 2 10 4 10 3 0 8 -4 11 -10z m-3098 -32 c-3 -8 -6 -5 -6
6 -1 11 2 17 5 13 3 -3 4 -12 1 -19z m2768 -8 c3 -5 -1 -10 -9 -10 -9 0 -16 5
-16 10 0 6 4 10 9 10 6 0 13 -4 16 -10z m-955 -4 c0 -3 -4 -8 -10 -11 -5 -3
-10 -1 -10 4 0 6 5 11 10 11 6 0 10 -2 10 -4z"/>
<path d="M2280 1640 c0 -5 5 -10 11 -10 5 0 7 5 4 10 -3 6 -8 10 -11 10 -2 0
-4 -4 -4 -10z"/>
</g>
</svg>
